Coordinates
version=1
nRows=7
nColumns=63
inDegrees=yes

Units are S.I. units (second, meters, Newtons, ...)
If the header above contains a line with 'inDegrees', this indicates whether rotational values are in degrees (yes) or radians (no).

endheader
time	pelvis_tilt	pelvis_list	pelvis_rotation	pelvis_tx	pelvis_ty	pelvis_tz	hip_flexion_r	hip_adduction_r	hip_rotation_r	knee_angle_r	knee_angle_r_beta	ankle_angle_r	subtalar_angle_r	mtp_angle_r	hip_flexion_l	hip_adduction_l	hip_rotation_l	knee_angle_l	knee_angle_l_beta	ankle_angle_l	subtalar_angle_l	mtp_angle_l	L5_S1_Flex_Ext	L5_S1_Lat_Bending	L5_S1_axial_rotation	L4_L5_Flex_Ext	L4_L5_Lat_Bending	L4_L5_axial_rotation	L3_L4_Flex_Ext	L3_L4_Lat_Bending	L3_L4_axial_rotation	L2_L3_Flex_Ext	L2_L3_Lat_Bending	L2_L3_axial_rotation	L1_L2_Flex_Ext	L1_L2_Lat_Bending	L1_L2_axial_rotation	L1_T12_Flex_Ext	L1_T12_Lat_Bending	L1_T12_axial_rotation	Abs_r3	Abs_r2	Abs_r1	Abs_t1	Abs_t2	neck_flexion	neck_bending	neck_rotation	arm_flex_r	arm_add_r	arm_rot_r	elbow_flex_r	pro_sup_r	wrist_flex_r	wrist_dev_r	arm_flex_l	arm_add_l	arm_rot_l	elbow_flex_l	pro_sup_l	wrist_flex_l	wrist_dev_l
      1.08510638	      0.52521048	     -8.39058119	     89.01476941	      0.18822380	      0.74613317	      0.77934853	     19.48912188	      5.08345413	      6.80077997	     18.34759007	      0.32022586	     27.32538615	    -10.13788576	      0.00000000	     21.41706690	     -2.27574897	     11.67026926	     19.80340742	      0.34563466	     34.59760334	    -16.11746622	      0.00000000	     -0.08737054	      0.44042781	      0.54745190	     -0.16225583	      0.58576898	      0.58166765	     -0.14354106	      1.07085617	      0.58166765	     -0.09985579	      1.07085617	      0.47902042	     -0.08113228	      0.89812038	      0.44480467	     -0.04992353	      0.68222267	      0.41058893	     -0.62407903	      4.98220743	      3.04476325	      0.00000000	      0.00000000	     19.07180603	      1.40299413	    -10.45898824	     20.86450091	     -5.62151097	     10.60974082	     93.58706655	     89.46251641	     -5.40169876	    -23.97559186	     33.32705497	    -15.16935185	     30.40046090	     89.81947902	     88.79515338	     11.41215049	    -13.46876979
      1.10638298	     -0.48772122	     -8.47890182	     87.08084875	      0.19228388	      0.74662417	      0.77874351	     19.88908307	      4.85011860	      9.06698726	     18.75783438	      0.32738597	     27.25394347	    -11.01899994	      0.00000000	     20.82975430	     -2.06250060	      9.58741191	     19.04972838	      0.33248048	     34.22754490	    -15.91442473	      0.00000000	     -0.10086149	      0.34385445	      0.87656190	     -0.18730987	      0.45732642	      0.93134702	     -0.16570534	      0.83604771	      0.93134702	     -0.11527459	      0.83604771	      0.76699166	     -0.09365998	      0.70118800	      0.71220654	     -0.05763225	      0.53263054	      0.65742143	     -0.72044352	      3.88975032	      4.87517432	      0.00000000	      0.00000000	     16.98772754	      2.05295422	    -13.29957655	     21.77069884	     -5.26271328	      9.53994089	     93.27630380	     89.48632534	     -7.04042660	    -24.05069212	     35.66164784	    -14.41920943	     31.36636405	     88.74781594	     88.89384021	     14.24666231	    -11.44701007
      1.12765957	     -1.66425296	     -8.52875269	     85.02679749	      0.19706989	      0.74693052	      0.77778238	     20.18782842	      4.64940304	     12.09252084	     19.09362407	      0.33324661	     26.85868399	    -12.87729092	      0.00000000	     20.20576512	     -1.74044321	      7.33428603	     18.26171437	      0.31872704	     34.10342421	    -15.32171566	      0.00000000	     -0.09275720	      0.22288266	      1.19219589	     -0.17225940	      0.29643394	      1.26670813	     -0.15239080	      0.54191690	      1.26670813	     -0.10601220	      0.54191690	      1.04317140	     -0.08613434	      0.45450232	      0.96865916	     -0.05300146	      0.34524524	      0.89414692	     -0.66255540	      2.52129321	      6.63063587	      0.00000000	      0.00000000	     14.62245900	      2.61014820	    -15.28717373	     22.53157693	     -4.76970891	      8.51527697	     92.66706449	     89.46557719	     -7.13969651	    -23.82302292	     37.63675316	    -13.59518189	     31.47547092	     87.97724679	     88.74451541	     20.00199552	     -6.85623222
      1.14893617	     -3.22899260	     -8.53289526	     82.50812669	      0.20282149	      0.74687576	      0.77713915	     20.68193581	      4.14421378	     14.83489434	     19.70470575	      0.34391199	     26.87600922	    -13.48151773	      0.00000000	     19.54443556	     -1.09783994	      4.90951087	     17.37771529	      0.30329835	     33.91312706	    -15.17009312	      0.00000000	     -0.08065808	      0.04516820	      1.61686259	     -0.14979012	      0.06007370	      1.71791650	     -0.13251316	      0.10982196	      1.71791650	     -0.09218412	      0.10982196	      1.41475477	     -0.07489909	      0.09210699	      1.31370086	     -0.04608803	      0.06996554	      1.21264694	     -0.57613260	      0.51095170	      8.99250467	      0.00000000	      0.00000000	     12.79582595	      3.04379469	    -17.18383839	     23.00614877	     -4.49071360	      7.21992667	     92.32556727	     89.39145641	     -6.94607641	    -22.82831511	     39.79030888	    -12.96800460	     32.48189447	     87.04618934	     88.15973360	     23.65110703	     -3.50882299
      1.17021277	     -4.51031931	     -8.49388577	     80.69971509	      0.20745261	      0.74650169	      0.77631670	     20.97983320	      3.64172645	     16.68112831	     20.10458596	      0.35089122	     26.98394428	    -13.77600080	      0.00000000	     19.21476361	     -0.45677952	      3.36605632	     16.99359173	      0.29659413	     34.02188664	    -15.16849254	      0.00000000	     -0.05478098	     -0.08117587	      1.85429343	     -0.10173377	     -0.10796391	      1.97018676	     -0.08999968	     -0.19737102	      1.97018676	     -0.06260919	     -0.19737102	      1.62250675	     -0.05086962	     -0.16553384	      1.50661341	     -0.03130185	     -0.12574143	      1.39072007	     -0.39129509	     -0.91827773	     10.31302374	      0.00000000	      0.00000000	     11.19010530	      2.67563758	    -17.15564790	     23.59131515	     -4.64140678	      6.30412479	     92.32248289	     89.24588055	     -6.67898261	    -19.36840440	     41.50636926	    -12.82897906	     33.89921035	     86.25761735	     86.93070295	     24.28176531	     -1.99644063
      1.19148936	     -6.40070589	     -8.51039468	     77.61118974	      0.21462517	      0.74509178	      0.77600632	     21.75376524	      3.28843011	     20.59917562	     21.05226614	      0.36743136	     26.84319486	    -15.25988062	      0.00000000	     18.75620346	      0.22160358	     -0.41382704	     16.10336873	      0.28105680	     34.40167725	    -13.89143564	      0.00000000	     -0.01762529	     -0.30795355	      2.37548371	     -0.03273193	     -0.40957822	      2.52395144	     -0.02895659	     -0.74875826	      2.52395144	     -0.02014395	     -0.74875826	      2.07854825	     -0.01636685	     -0.62797887	      1.93008051	     -0.01007109	     -0.47702005	      1.78161278	     -0.12589571	     -3.48363212	     13.21172775	      0.00000000	      0.00000000	     11.12576433	      3.01679561	    -18.34321992	     23.46093808	     -4.21685840	      3.86030965	     93.49832517	     89.06908424	     -5.08551232	    -13.66544480	     43.42565490	    -13.08650975	     37.09207734	     85.93718772	     82.98452845	     20.64380521	     -1.04333135
      1.21276596	     -7.71857835	     -8.42463733	     75.61704611	      0.21953769	      0.74389530	      0.77495706	     22.07496208	      2.89430869	     22.71593964	     21.59912000	      0.37697576	     26.97769107	    -15.56543594	      0.00000000	     18.47767350	      0.77250509	     -2.95450569	     15.70434657	      0.27409255	     34.78954185	    -12.90197301	      0.00000000	      0.02502849	     -0.43175170	      2.53397124	      0.04648041	     -0.57422976	      2.69234444	      0.04111931	     -1.04976108	      2.69234444	      0.02860506	     -1.04976108	      2.21722483	      0.02324146	     -0.88042806	      2.05885163	      0.01430128	     -0.66878338	      1.90047843	      0.17877600	     -4.88406156	     14.09318784	      0.00000000	      0.00000000	     10.65271428	      2.67043171	    -16.69459234	     24.14772310	     -3.93674252	      3.24763711	     93.67518032	     88.83916307	     -6.22013005	     -9.82784371	     44.48680851	    -14.54002389	     40.94744897	     86.55743989	     78.88380238	     11.84980343	     -4.03602936
